<?xml version="1.0" encoding="UTF-8"?>
<svg width="8px" height="20px" viewBox="0 0 8 20" version="1.1" xmlns="http://www.w3.org/2000/svg" xmlns:xlink="http://www.w3.org/1999/xlink">
    <!-- Generator: Sketch 52.6 (67491) - http://www.bohemiancoding.com/sketch -->
    <title>plastic-bottle</title>
    <desc>Created with Sketch.</desc>
    <g id="Page-1" stroke="none" stroke-width="1" fill="none" fill-rule="evenodd">
        <g id="plastic-bottle" fill="#000000" fill-rule="nonzero">
            <path d="M7.90664291,6.44393862 C7.77488585,5.61181586 7.06252977,4.70046036 6.4902037,3.96823529 C6.19020719,3.58439898 5.90682441,3.22189258 5.83670769,3.02199488 C5.70556093,2.64838875 5.65653347,2.24071611 5.63815665,1.99140665 C5.76130169,1.95309463 5.84796434,1.86163683 5.84796434,1.75488491 L5.84796434,0.699079284 C5.84796434,0.313606138 5.4322142,0 4.92125722,0 L3.07869277,0 C2.56773579,0 2.15198566,0.313606138 2.15205347,0.699079284 L2.15205347,1.75493606 C2.15205347,1.86173913 2.23885173,1.95319693 2.36206459,1.99150895 C2.34375558,2.24040921 2.29479593,2.64731458 2.16337793,3.02204604 C2.09319339,3.22194373 1.80981062,3.58445013 1.50981411,3.96828645 C0.937420228,4.70051151 0.225064143,5.61181586 0.0933748981,6.44398977 C-0.0252267956,7.19299233 -0.00318817331,8.78409207 0.0128152571,9.9459335 C0.018850449,10.383734 0.0240719072,10.7618926 0.0208847834,11.0154476 C0.0178332818,11.2634783 0.0760152448,11.5072123 0.193667582,11.7396931 C0.406255524,12.1596931 0.900666587,13.2341176 0.900666587,14.1364194 C0.900666587,14.8090537 0.699538729,15.582711 0.522076961,16.2653197 C0.369705316,16.8514066 0.238151694,17.3575448 0.238151694,17.745422 C0.238151694,18.5868031 0.489731044,19.1743734 1.00733352,19.5418414 C1.50472827,19.8948338 2.26258564,19.8706394 2.75631859,19.6988235 C2.84318466,19.6685934 2.9164207,19.6421483 2.97731511,19.6195908 C3.16569447,19.7612788 3.4767442,19.9451151 3.86455614,19.9895141 C3.90802308,19.9989258 3.95379561,20.0013299 3.99977156,19.9989258 C4.01190976,19.9995908 4.02411577,20 4.03679645,20 C4.07043078,20 4.10352262,19.9964706 4.13546167,19.9894629 C4.52618949,19.944757 4.84863149,19.7582097 5.04270698,19.6173913 C5.10475418,19.6404604 5.17982112,19.6675703 5.26939964,19.6987724 C5.64358155,19.8291049 6.42788526,19.9426087 6.99268429,19.5417903 C7.51028676,19.1743734 7.76186611,18.5867519 7.76186611,17.7453708 C7.76186611,17.3574936 7.63024468,16.8513555 7.47794085,16.2652685 C7.30047908,15.5826598 7.09935122,14.8090026 7.09935122,14.1363683 C7.09935122,13.2341176 7.59376228,12.1596931 7.80635022,11.7396419 C7.92400256,11.5071611 7.98218452,11.2634783 7.97913302,11.0153453 C7.9759459,10.7618414 7.98116736,10.383734 7.98720255,9.94588235 C8.00320598,8.78404092 8.02517679,7.19294118 7.90664291,6.44393862 Z" id="Shape"></path>
        </g>
    </g>
</svg>