<svg width="6px" height="14px" viewBox="0 0 6 14" >
    <g stroke="none" stroke-width="1" fill="none" fill-rule="evenodd">
        <path d="M1.140625,9.6875 C1.20833367,8.97395477 1.27604133,8.26823266 1.34375,7.5703125 C1.41145867,6.87239234 1.47135391,6.15625367 1.5234375,5.421875 C1.53385422,5.24999914 1.55078113,5.13151074 1.57421875,5.06640625 C1.59765637,5.00130176 1.65624953,4.95833344 1.75,4.9375 C2.19271055,4.84895789 2.65624758,4.7565109 3.140625,4.66015625 C3.62500242,4.5638016 4.09374773,4.44010492 4.546875,4.2890625 C4.56250008,4.28385414 4.58593734,4.28125 4.6171875,4.28125 C4.67447945,4.28125 4.703125,4.30208313 4.703125,4.34375 L4,11.953125 C3.98437492,12.1250009 3.96614594,12.2434893 3.9453125,12.3085938 C3.92447906,12.3736982 3.86718797,12.4166666 3.7734375,12.4375 C3.33072695,12.5729173 2.88281477,12.7239575 2.4296875,12.890625 C1.97656023,13.0572925 1.49739836,13.2265616 0.9921875,13.3984375 C0.976562422,13.4036459 0.953125156,13.40625 0.921875,13.40625 C0.864583047,13.40625 0.8359375,13.3802086 0.8359375,13.328125 C0.8359375,13.3229166 0.841145781,13.2526048 0.8515625,13.1171875 C0.861979219,12.9817702 0.876301992,12.8072927 0.89453125,12.59375 C0.912760508,12.3802073 0.932291562,12.1406263 0.953125,11.875 C0.973958438,11.6093737 0.996093633,11.3437513 1.01953125,11.078125 C1.04296887,10.8124987 1.06510406,10.5572929 1.0859375,10.3125 C1.10677094,10.0677071 1.12499992,9.85937586 1.140625,9.6875 Z M1.7265625,3.453125 C1.74218758,3.22916555 1.75390621,3.05729227 1.76171875,2.9375 C1.76953129,2.81770773 1.77604164,2.72786488 1.78125,2.66796875 C1.78645836,2.60807262 1.7890625,2.57031258 1.7890625,2.5546875 C1.7890625,2.53906242 1.79036457,2.52734379 1.79296875,2.51953125 C1.79557293,2.51171871 1.79817707,2.49609387 1.80078125,2.47265625 C1.80338543,2.44921863 1.80729164,2.39973996 1.8125,2.32421875 C1.81770836,2.24869754 1.82552078,2.13802156 1.8359375,1.9921875 C1.84635422,1.84635344 1.86197906,1.64583461 1.8828125,1.390625 C1.89322922,1.21874914 1.91015613,1.10026074 1.93359375,1.03515625 C1.95703137,0.970051758 2.01562453,0.927083438 2.109375,0.90625 C2.55208555,0.817707891 3.01562258,0.725260898 3.5,0.62890625 C3.98437742,0.532551602 4.45312273,0.408854922 4.90625,0.2578125 C4.92187508,0.252604141 4.94531234,0.25 4.9765625,0.25 C4.99218758,0.281250156 5.0130207,0.302083281 5.0390625,0.3125 L5.0625,0.328125 L4.890625,2.46875 C4.87499992,2.64062586 4.85546887,2.76041633 4.83203125,2.828125 C4.80859363,2.89583367 4.75260461,2.93749992 4.6640625,2.953125 C4.22135195,3.03645875 3.77343977,3.12760367 3.3203125,3.2265625 C2.86718523,3.32552133 2.38802336,3.42447867 1.8828125,3.5234375 C1.86718742,3.52864586 1.84375016,3.53125 1.8125,3.53125 C1.75520805,3.53125 1.7265625,3.50520859 1.7265625,3.453125 Z" id="i" fill="#111111"></path>
    </g>
</svg>
