<svg xmlns="http://www.w3.org/2000/svg" viewBox="0 0 150 150"><defs><style>.cls-1{fill:#2734ad}.cls-2{fill:#00adb5}</style></defs><g id="Group_1768" data-name="Group 1768" transform="translate(-195.52 -210.05)"><g id="Group_1767" data-name="Group 1767"><g id="Group_1765" data-name="Group 1765"><path id="Path_1015" data-name="Path 1015" class="cls-1" d="M246.18 297.47c.56.92.92 1.44.92 1.44s-.12.76-.4 1.98h30.34c-.29-1.22-.4-1.98-.4-1.98s.36-.52.92-1.44z"/><path id="Path_1016" data-name="Path 1016" class="cls-1" d="M241.23 287.18h41.27c.4-1.1.77-2.24 1.1-3.42h-43.47c.33 1.18.7 2.32 1.1 3.42z"/><path id="Path_1017" data-name="Path 1017" class="cls-1" d="M244.25 294.03h35.22c.53-1.02 1.08-2.17 1.64-3.42h-38.5c.56 1.26 1.11 2.4 1.64 3.42z"/><path id="Path_1018" data-name="Path 1018" class="cls-1" d="M244.43 307.74h34.87a43.66 43.66 0 0 1-1.3-3.42h-32.28c-.34 1.05-.77 2.21-1.29 3.42z"/><path id="Path_1019" data-name="Path 1019" class="cls-1" d="M215.08 335.15h93.56a188.47 188.47 0 0 0-3.97-3.42h-85.63c-1.44 1.22-2.77 2.37-3.96 3.42z"/><path id="Path_1020" data-name="Path 1020" class="cls-1" d="M223.3 328.3h77.12c-1.49-1.16-3.03-2.31-4.6-3.42H227.9c-1.57 1.11-3.11 2.26-4.6 3.42z"/><path id="Path_1021" data-name="Path 1021" class="cls-1" d="M233.23 321.38a.672.672 0 0 0-.11.07h57.48a.671.671 0 0 1-.11-.07 23.718 23.718 0 0 1-4.31-3.35h-48.65a23.993 23.993 0 0 1-4.3 3.35z"/><path id="Path_1022" data-name="Path 1022" class="cls-1" d="M240.53 314.59h42.66a31.45 31.45 0 0 1-2.21-3.42h-38.24a31.45 31.45 0 0 1-2.21 3.42z"/><path id="Path_1023" data-name="Path 1023" class="cls-1" d="M239.64 266.62h44.44c-.17-1.11-.35-2.26-.53-3.42h-43.37c-.19 1.16-.36 2.3-.54 3.42z"/><path id="Path_1024" data-name="Path 1024" class="cls-1" d="M243.41 246.06h36.9c-.3-1.19-.62-2.34-.96-3.42h-34.98q-.51 1.62-.96 3.42z"/><path id="Path_1025" data-name="Path 1025" class="cls-1" d="M245.61 239.2h32.51a19.383 19.383 0 0 0-1.81-3.42h-28.89a18.463 18.463 0 0 0-1.81 3.42z"/><path id="Path_1026" data-name="Path 1026" class="cls-1" d="M270.01 232.35a41.034 41.034 0 0 0-16.3 0z"/><path id="Path_1027" data-name="Path 1027" class="cls-1" d="M314.21 340.32s-.67-.66-1.81-1.73H211.32c-1.14 1.07-1.81 1.73-1.81 1.73v1.69h104.7"/><path id="Path_1028" data-name="Path 1028" class="cls-1" d="M239.31 280.33h45.1c.21-1.12.36-2.27.46-3.42h-46.01c.1 1.15.24 2.29.45 3.42z"/><path id="Path_1029" data-name="Path 1029" class="cls-1" d="M239.04 270.4a24.322 24.322 0 0 0-.28 3.07h46.2a24.322 24.322 0 0 0-.28-3.07c-.02-.12-.04-.24-.06-.35H239.1c-.02.12-.04.24-.06.35z"/><path id="Path_1030" data-name="Path 1030" class="cls-1" d="M240.72 259.76H283q-.27-1.71-.57-3.42h-41.14q-.3 1.725-.57 3.42z"/><path id="Path_1031" data-name="Path 1031" class="cls-1" d="M241.91 252.91h39.89q-.33-1.74-.69-3.42H242.6q-.345 1.68-.69 3.42z"/></g><g id="Group_1766" data-name="Group 1766"><path id="Path_1032" data-name="Path 1032" class="cls-2" d="M263.5 294.03c.56.92.92 1.44.92 1.44s-.12.76-.4 1.98h30.34c-.29-1.22-.4-1.98-.4-1.98s.36-.52.92-1.44z"/><path id="Path_1033" data-name="Path 1033" class="cls-2" d="M258.55 283.75h41.27c.4-1.1.77-2.24 1.1-3.42h-43.47c.33 1.18.7 2.32 1.1 3.42z"/><path id="Path_1034" data-name="Path 1034" class="cls-2" d="M261.57 290.6h35.22c.53-1.02 1.08-2.17 1.64-3.42h-38.5c.56 1.25 1.11 2.4 1.64 3.42z"/><path id="Path_1035" data-name="Path 1035" class="cls-2" d="M261.75 304.31h34.87a43.66 43.66 0 0 1-1.3-3.42h-32.28c-.34 1.05-.77 2.21-1.29 3.42z"/><path id="Path_1036" data-name="Path 1036" class="cls-2" d="M232.4 331.72h93.56a188.47 188.47 0 0 0-3.97-3.42h-85.63c-1.44 1.21-2.77 2.37-3.96 3.42z"/><path id="Path_1037" data-name="Path 1037" class="cls-2" d="M240.62 324.87h77.12c-1.49-1.16-3.03-2.31-4.6-3.42h-67.91c-1.58 1.11-3.12 2.26-4.61 3.42z"/><path id="Path_1038" data-name="Path 1038" class="cls-2" d="M250.55 317.95a.672.672 0 0 0-.11.07h57.48a.671.671 0 0 1-.11-.07 23.718 23.718 0 0 1-4.31-3.35h-48.65a23.306 23.306 0 0 1-4.3 3.35z"/><path id="Path_1039" data-name="Path 1039" class="cls-2" d="M257.85 311.16h42.66a31.45 31.45 0 0 1-2.21-3.42h-38.24a31.455 31.455 0 0 1-2.21 3.42z"/><path id="Path_1040" data-name="Path 1040" class="cls-2" d="M256.97 263.18h44.44c-.17-1.11-.35-2.26-.53-3.42H257.5c-.18 1.17-.36 2.31-.53 3.42z"/><path id="Path_1041" data-name="Path 1041" class="cls-2" d="M260.73 242.62h36.9c-.3-1.19-.62-2.34-.96-3.42h-34.98q-.51 1.635-.96 3.42z"/><path id="Path_1042" data-name="Path 1042" class="cls-2" d="M262.93 235.77h32.51a18.744 18.744 0 0 0-1.81-3.42h-28.89a18.745 18.745 0 0 0-1.81 3.42z"/><path id="Path_1043" data-name="Path 1043" class="cls-2" d="M287.33 228.92a41.034 41.034 0 0 0-16.3 0z"/><path id="Path_1044" data-name="Path 1044" class="cls-2" d="M331.54 336.89s-.67-.66-1.81-1.73H228.64c-1.14 1.07-1.81 1.73-1.81 1.73v1.69h104.7"/><path id="Path_1045" data-name="Path 1045" class="cls-2" d="M256.63 276.89h45.1c.21-1.12.36-2.27.46-3.42h-46.01c.1 1.15.24 2.3.45 3.42z"/><path id="Path_1046" data-name="Path 1046" class="cls-2" d="M256.36 266.97a24.322 24.322 0 0 0-.28 3.07h46.2a24.322 24.322 0 0 0-.28-3.07c-.02-.12-.04-.24-.06-.35h-45.53c-.01.11-.03.23-.05.35z"/><path id="Path_1047" data-name="Path 1047" class="cls-2" d="M258.04 256.33h42.28q-.27-1.71-.57-3.42h-41.14z"/><path id="Path_1048" data-name="Path 1048" class="cls-2" d="M259.24 249.48h39.89q-.33-1.74-.69-3.42h-38.51q-.36 1.68-.69 3.42z"/></g></g><path id="Rectangle_1906" data-name="Rectangle 1906" transform="translate(195.52 210.05)" fill="none" d="M0 0h150v150H0z"/></g></svg>
