<svg xmlns="http://www.w3.org/2000/svg" viewBox="0 0 150 150"><defs><style>.cls-1{fill:#1a5cb0}.cls-2{fill:#00adb5}.cls-5{fill:#2734ad}.cls-6{fill:#0d85b2}</style><clipPath id="clip-path"><path id="Rectangle_1902" data-name="Rectangle 1902" transform="translate(260.4 104.91)" d="M0 0h18.66v7.51H0z"/></clipPath><clipPath id="clip-path-2"><path id="Rectangle_1903" data-name="Rectangle 1903" transform="translate(257.48 76.74)" d="M0 0h40.83v7.44H0z"/></clipPath><clipPath id="clip-path-3"><path id="Rectangle_1904" data-name="Rectangle 1904" transform="translate(253.68 52.84)" d="M0 0h39.37v8.62H0z"/></clipPath></defs><g id="Group_1764" data-name="Group 1764" transform="translate(-195.52)"><g id="Group_1763" data-name="Group 1763"><path id="Path_996" data-name="Path 996" class="cls-1" d="M270.53 82.44a84.056 84.056 0 0 1-14.46-1.2c-11.01-1.93-18.59-6-18.59-10.7 0-6.58 14.79-11.91 33.05-11.91 10.15 0 19.22 1.65 25.28 4.24 4.84 2.07 7.76 4.74 7.76 7.66 0 6.58-14.8 11.91-33.04 11.91zm0-25.73c-21.07 0-38.14 6.15-38.14 13.74s17.07 13.74 38.14 13.74 38.13-6.15 38.13-13.74-17.07-13.74-38.13-13.74z"/><g id="Group_1743" data-name="Group 1743"><g id="Group_1742" data-name="Group 1742"><g id="Group_1739" data-name="Group 1739"><path id="Path_997" data-name="Path 997" class="cls-2" d="M321.72 123.36c0 10.19-22.92 18.44-51.19 18.44s-51.2-8.26-51.2-18.44 22.92-18.45 51.2-18.45 51.19 8.26 51.19 18.45z"/></g><g id="Group_1740" data-name="Group 1740"><path id="Path_998" data-name="Path 998" d="M315.95 123.36c0 9.04-20.33 16.36-45.42 16.36s-45.43-7.32-45.43-16.36 20.34-16.37 45.43-16.37 45.42 7.33 45.42 16.37z" fill="#efefef"/></g><g id="Group_1741" data-name="Group 1741"><path id="Path_999" data-name="Path 999" d="M293.98 116.36c-5.62-2.4-14.04-3.93-23.45-3.93-16.94 0-30.65 4.94-30.65 11.04 0 4.37 7.04 8.14 17.25 9.93a78.378 78.378 0 0 0 13.41 1.11c16.92 0 30.64-4.94 30.64-11.04-.01-2.72-2.71-5.19-7.2-7.11z" fill="#fff"/></g></g><path id="Path_1000" data-name="Path 1000" class="cls-2" d="M270.53 131.47a56.81 56.81 0 0 1-9.86-.82c-7.51-1.32-12.68-4.09-12.68-7.3 0-4.48 10.09-8.12 22.53-8.12 6.92 0 13.11 1.12 17.24 2.89 3.3 1.41 5.29 3.23 5.29 5.23 0 4.48-10.08 8.12-22.52 8.12zm0-17.55c-14.36 0-26 4.19-26 9.37s11.64 9.37 26 9.37 26-4.19 26-9.37-11.64-9.37-26-9.37z"/></g><path id="Path_1001" data-name="Path 1001" class="cls-5" d="M270.53 57.92a97.681 97.681 0 0 1-16.76-1.39c-12.76-2.24-21.55-6.95-21.55-12.41 0-7.62 17.14-13.8 38.31-13.8 11.76 0 22.28 1.91 29.31 4.92 5.61 2.4 8.99 5.5 8.99 8.88-.01 7.62-17.15 13.8-38.3 13.8zm0-29.82c-24.42 0-44.21 7.13-44.21 15.93s19.79 15.92 44.21 15.92 44.2-7.13 44.2-15.92-19.79-15.93-44.2-15.93z"/><path id="Path_1002" data-name="Path 1002" class="cls-6" d="M270.53 106.95a70.433 70.433 0 0 1-12.16-1.01c-9.26-1.62-15.64-5.04-15.64-9 0-5.53 12.44-10.01 27.79-10.01 8.53 0 16.17 1.39 21.26 3.57 4.07 1.74 6.52 3.99 6.52 6.44.01 5.53-12.43 10.01-27.77 10.01zm0-21.64c-17.72 0-32.07 5.17-32.07 11.55s14.36 11.55 32.07 11.55 32.07-5.17 32.07-11.55-14.36-11.55-32.07-11.55z"/><g id="Group_1756" data-name="Group 1756"><g id="Group_1753" data-name="Group 1753"><g id="Group_1750" data-name="Group 1750"><g id="Group_1744" data-name="Group 1744"><path id="Path_1003" data-name="Path 1003" class="cls-5" d="M269.27 124.68l-.06-36.02s0-15.82 1.27-19.88.95-15.09.95-15.09l-13.95.54V92.5l7.67 32.18z"/></g><g id="Group_1745" data-name="Group 1745"><path id="Path_1004" data-name="Path 1004" class="cls-5" d="M270.47 124.68l.06-36.02s0-15.82-1.27-19.88-.95-15.09-.95-15.09l13.95.54V92.5l-7.67 32.18z"/></g><g id="Group_1746" data-name="Group 1746"><path id="Path_1005" data-name="Path 1005" class="cls-5" d="M257.48 33.82c1.32-5.26 8.23-8.56 8.7-9.27s7.37-2.61 7.37-2.61 11.17 9.51 9.98 18.3A173.943 173.943 0 0 0 282.26 59s-24.78 2.64-24.78 1.92a56.976 56.976 0 0 1 0-27.1z"/></g><g id="Group_1747" data-name="Group 1747"><path id="Path_1006" data-name="Path 1006" class="cls-5" d="M273.71 22.66l-7.13 1.58V21.7s-4.22 1.74-4.25-.16-2.4-7.4.13-9.88 7.13-1.85 8.72.37 1.11 6.02 1.11 6.02z"/></g><g id="Group_1748" data-name="Group 1748"><path id="Path_1007" data-name="Path 1007" class="cls-5" d="M261.99 11.72a7.091 7.091 0 0 0 5.51 0l.79.36s.71 3.21 1.66 3.45a2.746 2.746 0 0 0 2.97-3.45c-.6-2.74-4.75-5.38-7.84-2.87l-3.09 2.51"/></g><g id="Group_1749" data-name="Group 1749"><path id="Path_1008" data-name="Path 1008" class="cls-5" d="M275.76 28.16s-3.18 3.59-.11 10.91 6.03 14.34 6.03 14.34l2 2.83 3.13 18.05 3.16-.1s.58-20.39-.28-22.84-3.79-17.04-5.88-19.17-8.05-4.02-8.05-4.02z"/></g></g><g id="Group_1751" data-name="Group 1751"><path id="Path_1009" data-name="Path 1009" class="cls-5" d="M270.4 124.66v2.81h9.06l-4.53-2.81z"/></g><g id="Group_1752" data-name="Group 1752"><path id="Path_1010" data-name="Path 1010" class="cls-5" d="M269.46 124.66v2.81h-9.06l4.53-2.81z"/></g></g><g id="Group_1754" data-name="Group 1754"><path id="Rectangle_1901" data-name="Rectangle 1901" class="cls-5" transform="translate(277.23 76.03)" d="M0 0h21.36v17.26H0z"/></g><g id="Group_1755" data-name="Group 1755"><path id="Path_1011" data-name="Path 1011" class="cls-5" d="M288.26 81.99a4.369 4.369 0 1 1 4.65-4.36 4.522 4.522 0 0 1-4.65 4.36zm0-7.72a3.372 3.372 0 1 0 3.65 3.36 3.521 3.521 0 0 0-3.65-3.36z"/></g></g><g id="Group_1758" data-name="Group 1758"><g id="Group_1757" data-name="Group 1757" clip-path="url(#clip-path)"><path id="Path_1012" data-name="Path 1012" class="cls-6" d="M269.35 106.95a70.433 70.433 0 0 1-12.16-1.01c-9.26-1.62-15.64-5.04-15.64-9 0-5.53 12.44-10.01 27.79-10.01 8.53 0 16.17 1.39 21.26 3.57 4.07 1.74 6.52 3.99 6.52 6.44.02 5.53-12.42 10.01-27.77 10.01zm0-21.64c-17.72 0-32.07 5.17-32.07 11.55s14.36 11.55 32.07 11.55 32.07-5.17 32.07-11.55-14.35-11.55-32.07-11.55z"/></g></g><g id="Group_1760" data-name="Group 1760"><g id="Group_1759" data-name="Group 1759" clip-path="url(#clip-path-2)"><path id="Path_1013" data-name="Path 1013" class="cls-1" d="M270.53 82.44a84.056 84.056 0 0 1-14.46-1.2c-11.01-1.93-18.59-6-18.59-10.7 0-6.58 14.79-11.91 33.05-11.91 10.15 0 19.22 1.65 25.28 4.24 4.84 2.07 7.76 4.74 7.76 7.66 0 6.58-14.8 11.91-33.04 11.91zm0-25.73c-21.07 0-38.14 6.15-38.14 13.74s17.07 13.74 38.14 13.74 38.13-6.15 38.13-13.74-17.07-13.74-38.13-13.74z"/></g></g><g id="Group_1762" data-name="Group 1762"><g id="Group_1761" data-name="Group 1761" clip-path="url(#clip-path-3)"><path id="Path_1014" data-name="Path 1014" class="cls-5" d="M270.53 57.92a97.681 97.681 0 0 1-16.76-1.39c-12.76-2.24-21.55-6.95-21.55-12.41 0-7.62 17.14-13.8 38.31-13.8 11.76 0 22.28 1.91 29.31 4.92 5.61 2.4 8.99 5.5 8.99 8.88-.01 7.62-17.15 13.8-38.3 13.8zm0-29.82c-24.42 0-44.21 7.13-44.21 15.93s19.79 15.92 44.21 15.92 44.2-7.13 44.2-15.92-19.79-15.93-44.2-15.93z"/></g></g></g><path id="Rectangle_1905" data-name="Rectangle 1905" transform="translate(195.52)" fill="none" d="M0 0h150v150H0z"/></g></svg>
