<svg id="Group_1738" data-name="Group 1738" xmlns="http://www.w3.org/2000/svg" viewBox="0 0 150 150"><defs><style>.cls-1{fill:#2734ad}</style></defs><g id="Group_1676" data-name="Group 1676"><g id="Group_1668" data-name="Group 1668"><path id="Path_924" data-name="Path 924" class="cls-1" d="M97.14 50.06L99.94 0l2.8 50.06z"/><path id="Path_925" data-name="Path 925" class="cls-1" d="M119.01 16.49a67.09 67.09 0 0 1-3.8 5.74c-1.34 1.84-2.75 3.61-4.18 5.35s-2.93 3.43-4.44 5.09-3.08 3.28-4.66 4.87l-1.98 2-1.98-2c-1.58-1.59-3.15-3.21-4.67-4.87s-3.01-3.35-4.45-5.09-2.84-3.51-4.18-5.35a67 67 0 0 1-3.79-5.74 67 67 0 0 1 5.74 3.79c1.84 1.34 3.61 2.74 5.35 4.18s3.43 2.93 5.09 4.45 3.27 3.08 4.87 4.67h-3.96c1.6-1.58 3.21-3.14 4.87-4.66s3.35-3.01 5.09-4.45 3.51-2.84 5.35-4.18a67.722 67.722 0 0 1 5.73-3.8z"/></g><g id="Group_1669" data-name="Group 1669"><path id="Path_926" data-name="Path 926" class="cls-1" d="M97.96 52.04L64.54 14.66l37.38 33.42z"/><path id="Path_927" data-name="Path 927" class="cls-1" d="M89.69 12.84a67.087 67.087 0 0 1 1.37 6.74c.35 2.25.61 4.49.83 6.74s.35 4.49.46 6.74.14 4.49.15 6.74l.01 2.81-2.81-.01c-2.25-.01-4.49-.05-6.74-.14s-4.49-.24-6.74-.45-4.49-.48-6.74-.83a64.463 64.463 0 0 1-6.74-1.38 67.145 67.145 0 0 1 6.74-1.38c2.25-.35 4.49-.61 6.74-.83s4.49-.35 6.74-.45S87.45 37 89.7 37l-2.8 2.8c.01-2.25.05-4.49.15-6.74s.24-4.49.46-6.74.48-4.49.82-6.74a62.36 62.36 0 0 1 1.36-6.74z"/></g><g id="Group_1670" data-name="Group 1670"><path id="Path_928" data-name="Path 928" class="cls-1" d="M99.94 52.86l-50.06-2.8 50.06-2.8z"/><path id="Path_929" data-name="Path 929" class="cls-1" d="M66.37 30.99a67.089 67.089 0 0 1 5.74 3.8c1.84 1.34 3.61 2.75 5.35 4.18s3.43 2.93 5.09 4.45 3.28 3.08 4.87 4.66l2 1.98-2 1.98c-1.59 1.58-3.21 3.15-4.87 4.67s-3.35 3.01-5.09 4.45-3.51 2.84-5.35 4.18a64.709 64.709 0 0 1-5.74 3.79 67 67 0 0 1 3.79-5.74c1.34-1.84 2.75-3.61 4.18-5.35s2.93-3.43 4.45-5.09 3.08-3.27 4.67-4.87v3.96c-1.58-1.6-3.14-3.21-4.66-4.87s-3.01-3.35-4.44-5.09-2.84-3.51-4.18-5.35a64.889 64.889 0 0 1-3.81-5.74z"/></g><g id="Group_1671" data-name="Group 1671"><path id="Path_930" data-name="Path 930" class="cls-1" d="M101.92 52.04L64.54 85.46l33.42-37.38z"/><path id="Path_931" data-name="Path 931" class="cls-1" d="M62.72 60.31a67.087 67.087 0 0 1 6.74-1.37c2.25-.35 4.49-.61 6.74-.83s4.49-.35 6.74-.46 4.49-.14 6.74-.15l2.81-.01-.01 2.81c-.01 2.25-.05 4.49-.14 6.74s-.24 4.49-.45 6.74-.48 4.49-.83 6.74a64.463 64.463 0 0 1-1.38 6.74 67.143 67.143 0 0 1-1.38-6.74c-.35-2.25-.61-4.49-.83-6.74s-.35-4.49-.45-6.74-.14-4.49-.14-6.74l2.8 2.8c-2.25-.01-4.49-.05-6.74-.15s-4.49-.24-6.74-.46-4.49-.48-6.74-.83a59.54 59.54 0 0 1-6.74-1.35z"/></g><g id="Group_1672" data-name="Group 1672"><path id="Path_932" data-name="Path 932" class="cls-1" d="M102.74 50.06l-2.8 50.06-2.8-50.06z"/><path id="Path_933" data-name="Path 933" class="cls-1" d="M80.87 83.63a67.09 67.09 0 0 1 3.8-5.74c1.34-1.84 2.75-3.61 4.18-5.35s2.93-3.43 4.44-5.09 3.08-3.28 4.66-4.87l1.98-2 1.98 2c1.58 1.59 3.15 3.21 4.67 4.87s3.01 3.35 4.45 5.09 2.84 3.51 4.18 5.35a64.709 64.709 0 0 1 3.79 5.74 67 67 0 0 1-5.74-3.79c-1.84-1.34-3.61-2.74-5.35-4.18s-3.43-2.93-5.09-4.45-3.27-3.08-4.87-4.67h3.96c-1.6 1.58-3.21 3.14-4.87 4.66s-3.35 3.01-5.09 4.45-3.51 2.84-5.35 4.18a65.383 65.383 0 0 1-5.73 3.8z"/></g><g id="Group_1673" data-name="Group 1673"><path id="Path_934" data-name="Path 934" class="cls-1" d="M101.92 48.08l33.42 37.38-37.38-33.42z"/><path id="Path_935" data-name="Path 935" class="cls-1" d="M110.19 87.28a67.087 67.087 0 0 1-1.37-6.74c-.35-2.25-.61-4.49-.83-6.74s-.35-4.49-.46-6.74-.14-4.49-.15-6.74l-.01-2.81 2.81.01c2.25.01 4.49.05 6.74.14s4.49.24 6.74.45 4.49.48 6.74.83a64.463 64.463 0 0 1 6.74 1.38 67.146 67.146 0 0 1-6.74 1.38c-2.25.35-4.49.61-6.74.83s-4.49.35-6.74.45-4.49.14-6.74.14l2.8-2.8c-.01 2.25-.05 4.49-.15 6.74s-.24 4.49-.46 6.74-.48 4.49-.82 6.74a61.881 61.881 0 0 1-1.36 6.74z"/></g><g id="Group_1674" data-name="Group 1674"><path id="Path_936" data-name="Path 936" class="cls-1" d="M99.94 47.26l50.06 2.8-50.06 2.8z"/><path id="Path_937" data-name="Path 937" class="cls-1" d="M133.51 69.13a65.384 65.384 0 0 1-5.73-3.8c-1.84-1.34-3.61-2.75-5.35-4.18s-3.43-2.93-5.09-4.45-3.28-3.08-4.87-4.66l-2-1.98 2-1.98c1.59-1.58 3.21-3.15 4.87-4.67s3.35-3.01 5.09-4.45 3.51-2.84 5.35-4.18a64.708 64.708 0 0 1 5.74-3.79 67 67 0 0 1-3.79 5.74c-1.34 1.84-2.74 3.61-4.18 5.35s-2.93 3.43-4.45 5.09-3.08 3.27-4.67 4.87v-3.96c1.58 1.6 3.14 3.21 4.66 4.87s3.01 3.35 4.44 5.09 2.84 3.51 4.18 5.35 2.63 3.72 3.8 5.74z"/></g><g id="Group_1675" data-name="Group 1675"><path id="Path_938" data-name="Path 938" class="cls-1" d="M97.96 48.08l37.38-33.42-33.42 37.38z"/><path id="Path_939" data-name="Path 939" class="cls-1" d="M137.16 39.81a67.087 67.087 0 0 1-6.74 1.37c-2.25.35-4.49.61-6.74.83s-4.49.35-6.74.46-4.49.14-6.74.15l-2.81.01.01-2.81c.01-2.25.05-4.49.14-6.74s.24-4.49.45-6.74.48-4.49.83-6.74a64.463 64.463 0 0 1 1.38-6.74 67.143 67.143 0 0 1 1.38 6.74c.35 2.25.61 4.49.83 6.74s.35 4.49.45 6.74.14 4.49.14 6.74l-2.8-2.8c2.25.01 4.49.05 6.74.15s4.49.24 6.74.46 4.49.48 6.74.83a59.982 59.982 0 0 1 6.74 1.35z"/></g></g><g id="Group_1685" data-name="Group 1685"><g id="Group_1677" data-name="Group 1677"><path id="Path_940" data-name="Path 940" class="cls-1" d="M47.26 99.94l2.8-50.06 2.8 50.06z"/><path id="Path_941" data-name="Path 941" class="cls-1" d="M69.13 66.37a67.09 67.09 0 0 1-3.8 5.74c-1.34 1.84-2.75 3.61-4.18 5.35s-2.93 3.43-4.44 5.09-3.08 3.28-4.66 4.87l-1.98 2-1.98-2c-1.58-1.59-3.15-3.21-4.67-4.87s-3.01-3.35-4.45-5.09-2.84-3.51-4.18-5.35A67 67 0 0 1 31 66.37a67 67 0 0 1 5.74 3.79c1.84 1.34 3.61 2.74 5.35 4.18s3.43 2.93 5.09 4.45 3.27 3.08 4.87 4.67h-3.96c1.6-1.58 3.21-3.14 4.87-4.66s3.35-3.01 5.09-4.45 3.51-2.84 5.35-4.18a65.382 65.382 0 0 1 5.73-3.8z"/></g><g id="Group_1678" data-name="Group 1678"><path id="Path_942" data-name="Path 942" class="cls-1" d="M48.08 101.92L14.66 64.54l37.38 33.42z"/><path id="Path_943" data-name="Path 943" class="cls-1" d="M39.81 62.72a67.087 67.087 0 0 1 1.37 6.74c.35 2.25.61 4.49.82 6.74s.35 4.49.46 6.74.14 4.49.15 6.74l.01 2.81-2.81-.01c-2.25-.01-4.49-.05-6.74-.14s-4.49-.24-6.74-.45-4.49-.48-6.74-.83a64.463 64.463 0 0 1-6.74-1.38 67.143 67.143 0 0 1 6.74-1.38c2.25-.35 4.49-.61 6.74-.83s4.49-.35 6.74-.45 4.49-.14 6.74-.14l-2.8 2.8c.01-2.25.05-4.49.15-6.74s.24-4.49.46-6.74.48-4.49.82-6.74a64.406 64.406 0 0 1 1.37-6.74z"/></g><g id="Group_1679" data-name="Group 1679"><path id="Path_944" data-name="Path 944" class="cls-1" d="M50.06 102.74L0 99.94l50.06-2.8z"/><path id="Path_945" data-name="Path 945" class="cls-1" d="M16.49 80.87a67.09 67.09 0 0 1 5.74 3.8c1.84 1.34 3.61 2.75 5.35 4.18s3.43 2.93 5.09 4.45 3.28 3.08 4.87 4.66l2 1.98-2 1.98c-1.59 1.58-3.21 3.15-4.87 4.67s-3.35 3.01-5.09 4.45-3.51 2.84-5.35 4.18a64.709 64.709 0 0 1-5.74 3.79 67 67 0 0 1 3.79-5.74c1.34-1.84 2.75-3.61 4.18-5.35s2.93-3.43 4.45-5.09 3.08-3.27 4.67-4.87v3.96c-1.58-1.6-3.14-3.21-4.66-4.87s-3.01-3.35-4.44-5.09-2.84-3.51-4.18-5.35a67.182 67.182 0 0 1-3.81-5.74z"/></g><g id="Group_1680" data-name="Group 1680"><path id="Path_946" data-name="Path 946" class="cls-1" d="M52.04 101.92l-37.38 33.42 33.42-37.38z"/><path id="Path_947" data-name="Path 947" class="cls-1" d="M12.84 110.19a67.087 67.087 0 0 1 6.74-1.37c2.25-.35 4.49-.61 6.74-.83s4.49-.35 6.74-.46 4.49-.14 6.74-.15l2.81-.01-.01 2.81c-.01 2.25-.05 4.49-.14 6.74s-.24 4.49-.45 6.74-.48 4.49-.83 6.74a64.463 64.463 0 0 1-1.38 6.74 67.146 67.146 0 0 1-1.38-6.74c-.35-2.25-.61-4.49-.83-6.74s-.35-4.49-.45-6.74-.14-4.49-.14-6.74l2.8 2.8c-2.25-.01-4.49-.05-6.74-.15s-4.49-.24-6.74-.46-4.49-.48-6.74-.83a59.984 59.984 0 0 1-6.74-1.35z"/></g><g id="Group_1681" data-name="Group 1681"><path id="Path_948" data-name="Path 948" class="cls-1" d="M52.86 99.94L50.06 150l-2.8-50.06z"/><path id="Path_949" data-name="Path 949" class="cls-1" d="M30.99 133.51a67.088 67.088 0 0 1 3.8-5.74c1.34-1.84 2.75-3.61 4.18-5.35s2.93-3.43 4.44-5.09 3.08-3.28 4.66-4.87l1.98-2 1.98 2c1.58 1.59 3.15 3.21 4.67 4.87s3.01 3.35 4.45 5.09 2.84 3.51 4.18 5.35a64.708 64.708 0 0 1 3.79 5.74 67 67 0 0 1-5.74-3.79c-1.84-1.34-3.61-2.74-5.35-4.18s-3.43-2.93-5.09-4.45-3.27-3.08-4.87-4.67h3.96c-1.6 1.58-3.21 3.14-4.87 4.66s-3.35 3.01-5.09 4.45-3.51 2.84-5.35 4.18a67.72 67.72 0 0 1-5.73 3.8z"/></g><g id="Group_1682" data-name="Group 1682"><path id="Path_950" data-name="Path 950" class="cls-1" d="M52.04 97.96l33.42 37.38-37.38-33.42z"/><path id="Path_951" data-name="Path 951" class="cls-1" d="M60.31 137.16a67.087 67.087 0 0 1-1.37-6.74c-.35-2.25-.61-4.49-.83-6.74s-.35-4.49-.46-6.74-.14-4.49-.15-6.74l-.01-2.81 2.81.01c2.25.01 4.49.05 6.74.14s4.49.24 6.74.45 4.49.48 6.74.83a64.463 64.463 0 0 1 6.74 1.38 67.143 67.143 0 0 1-6.74 1.38c-2.25.35-4.49.61-6.74.83s-4.49.35-6.74.45-4.49.14-6.74.14l2.8-2.8c-.01 2.25-.05 4.49-.15 6.74s-.24 4.49-.46 6.74-.48 4.49-.83 6.74a59.984 59.984 0 0 1-1.35 6.74z"/></g><g id="Group_1683" data-name="Group 1683"><path id="Path_952" data-name="Path 952" class="cls-1" d="M50.06 97.14l50.06 2.8-50.06 2.8z"/><path id="Path_953" data-name="Path 953" class="cls-1" d="M83.63 119.01a65.385 65.385 0 0 1-5.73-3.8c-1.84-1.34-3.61-2.75-5.35-4.18s-3.43-2.93-5.09-4.45-3.28-3.08-4.87-4.66l-2-1.98 2-1.98c1.59-1.58 3.21-3.15 4.87-4.67s3.35-3.01 5.09-4.45 3.51-2.84 5.35-4.18a64.709 64.709 0 0 1 5.74-3.79 67 67 0 0 1-3.79 5.74c-1.34 1.84-2.74 3.61-4.18 5.35s-2.93 3.43-4.45 5.09-3.08 3.27-4.67 4.87v-3.96c1.58 1.6 3.14 3.21 4.66 4.87s3.01 3.35 4.44 5.09 2.84 3.51 4.18 5.35a67.086 67.086 0 0 1 3.8 5.74z"/></g><g id="Group_1684" data-name="Group 1684"><path id="Path_954" data-name="Path 954" class="cls-1" d="M48.08 97.96l37.38-33.42-33.42 37.38z"/><path id="Path_955" data-name="Path 955" class="cls-1" d="M87.28 89.69a67.087 67.087 0 0 1-6.74 1.37c-2.25.35-4.49.61-6.74.83s-4.49.35-6.74.46-4.49.14-6.74.15H57.5l.01-2.81c.01-2.25.05-4.49.14-6.74s.24-4.49.45-6.74.48-4.49.83-6.74a64.463 64.463 0 0 1 1.38-6.74 67.145 67.145 0 0 1 1.38 6.74c.35 2.25.61 4.49.83 6.74s.35 4.49.45 6.74.14 4.49.14 6.74l-2.8-2.8c2.25.01 4.49.05 6.74.15s4.49.24 6.74.46 4.49.48 6.74.83a61.576 61.576 0 0 1 6.75 1.36z"/></g></g><g id="Group_1703" data-name="Group 1703"><g id="Group_1702" data-name="Group 1702"><g id="Group_1686" data-name="Group 1686"><path id="Path_956" data-name="Path 956" class="cls-1" d="M116.6 77.63a51.195 51.195 0 1 1-51.19-51.2 51.194 51.194 0 0 1 51.19 51.2z"/></g><g id="Group_1687" data-name="Group 1687"><path id="Path_957" data-name="Path 957" d="M110.83 77.63A45.425 45.425 0 1 1 65.41 32.2a45.413 45.413 0 0 1 45.42 45.43z" fill="#efefef"/></g><g id="Group_1688" data-name="Group 1688"><path id="Path_958" data-name="Path 958" d="M88.86 58.18a30.645 30.645 0 1 0 7.2 19.73 30.6 30.6 0 0 0-7.2-19.73z" fill="#c3d9ea"/></g><g id="Group_1701" data-name="Group 1701"><g id="Group_1689" data-name="Group 1689"><path id="Path_959" data-name="Path 959" class="cls-1" d="M61.5 40.85v-.75h1.24v-3.43l-1.2.75v-.79l1.26-.82h.95v4.28h1.15v.74h-3.4z"/><path id="Path_960" data-name="Path 960" class="cls-1" d="M65.35 40.85v-.7a3.326 3.326 0 0 1 .56-.84 7.719 7.719 0 0 1 .91-.86 5.232 5.232 0 0 0 .74-.7.927.927 0 0 0 .21-.55.583.583 0 0 0-.66-.66.677.677 0 0 0-.49.17.926.926 0 0 0-.22.52l-1.01-.06a1.608 1.608 0 0 1 .52-1.07 1.82 1.82 0 0 1 1.19-.37 1.865 1.865 0 0 1 1.25.37 1.294 1.294 0 0 1 .44 1.04 1.468 1.468 0 0 1-.14.64 2.07 2.07 0 0 1-.36.53 5.109 5.109 0 0 1-.48.45c-.18.14-.35.28-.51.41a4.545 4.545 0 0 0-.45.4 1.2 1.2 0 0 0-.3.43h2.33v.82h-3.53z"/></g><g id="Group_1690" data-name="Group 1690"><path id="Path_961" data-name="Path 961" class="cls-1" d="M82.91 46.2v-.74h1.24v-3.43l-1.2.75v-.79l1.26-.82h.95v4.28h1.15v.74h-3.4z"/></g><g id="Group_1691" data-name="Group 1691"><path id="Path_962" data-name="Path 962" class="cls-1" d="M97.18 59.33v-.7a3.326 3.326 0 0 1 .56-.84 7.719 7.719 0 0 1 .91-.86 5.232 5.232 0 0 0 .74-.7.927.927 0 0 0 .21-.55.583.583 0 0 0-.66-.66.677.677 0 0 0-.49.17.926.926 0 0 0-.22.52l-1.01-.06a1.608 1.608 0 0 1 .52-1.07 1.82 1.82 0 0 1 1.19-.37 1.865 1.865 0 0 1 1.25.37 1.294 1.294 0 0 1 .44 1.04 1.468 1.468 0 0 1-.14.64 2.07 2.07 0 0 1-.36.53 5.109 5.109 0 0 1-.48.45c-.18.14-.35.28-.51.41a4.545 4.545 0 0 0-.45.4 1.2 1.2 0 0 0-.3.43h2.33v.82h-3.53z"/></g><g id="Group_1692" data-name="Group 1692"><path id="Path_963" data-name="Path 963" class="cls-1" d="M106.06 78.73a1.324 1.324 0 0 1-.46 1.09 2 2 0 0 1-1.32.38 2.1 2.1 0 0 1-1.29-.37 1.543 1.543 0 0 1-.56-1.07l1.02-.09a.747.747 0 0 0 .82.72.8.8 0 0 0 .56-.18.7.7 0 0 0 .2-.54.588.588 0 0 0-.24-.51 1.194 1.194 0 0 0-.72-.18h-.35v-.81h.33a1.007 1.007 0 0 0 .65-.18.635.635 0 0 0 .22-.5.694.694 0 0 0-.17-.49.665.665 0 0 0-.5-.18.738.738 0 0 0-.5.17.7.7 0 0 0-.22.48l-1-.07a1.472 1.472 0 0 1 .54-1.02 1.908 1.908 0 0 1 1.2-.37 1.956 1.956 0 0 1 1.23.35 1.172 1.172 0 0 1 .44.98 1.075 1.075 0 0 1-.28.77 1.356 1.356 0 0 1-.8.4v.01a1.435 1.435 0 0 1 .89.38 1.207 1.207 0 0 1 .31.83z"/></g><g id="Group_1693" data-name="Group 1693"><path id="Path_964" data-name="Path 964" class="cls-1" d="M101.19 98.27v1.02h-.95v-1.02h-2.28v-.75l2.12-3.25h1.12v3.25h.67v.74h-.68zm-.95-2.39c0-.13 0-.27.01-.42s.01-.25.02-.29a5.227 5.227 0 0 1-.33.58l-1.17 1.77h1.47z"/></g><g id="Group_1694" data-name="Group 1694"><path id="Path_965" data-name="Path 965" class="cls-1" d="M87.36 112.03a1.671 1.671 0 0 1-.5 1.27 1.877 1.877 0 0 1-1.36.47 1.952 1.952 0 0 1-1.21-.34 1.475 1.475 0 0 1-.56-.99l1-.08a.817.817 0 0 0 .28.47.8.8 0 0 0 .5.15.783.783 0 0 0 .6-.24.97.97 0 0 0 .22-.69.922.922 0 0 0-.21-.63.747.747 0 0 0-.59-.24.853.853 0 0 0-.68.32h-.98l.17-2.83h3.02v.74h-2.11l-.08 1.27a1.347 1.347 0 0 1 .91-.32 1.521 1.521 0 0 1 1.15.45 1.745 1.745 0 0 1 .43 1.22z"/></g><g id="Group_1695" data-name="Group 1695"><path id="Path_966" data-name="Path 966" class="cls-1" d="M66.84 117.5a1.735 1.735 0 0 1-.45 1.26 1.676 1.676 0 0 1-1.24.46 1.611 1.611 0 0 1-1.36-.62 2.974 2.974 0 0 1-.47-1.84 3.48 3.48 0 0 1 .48-2.02 1.594 1.594 0 0 1 1.38-.68 1.635 1.635 0 0 1 1.01.28 1.517 1.517 0 0 1 .52.87l-.95.13a.592.592 0 0 0-.61-.5.689.689 0 0 0-.63.4 2.587 2.587 0 0 0-.23 1.22 1.049 1.049 0 0 1 .45-.41 1.468 1.468 0 0 1 .64-.14 1.38 1.38 0 0 1 1.07.43 1.644 1.644 0 0 1 .39 1.16zm-1 .03a.953.953 0 0 0-.2-.65.68.68 0 0 0-.54-.23.693.693 0 0 0-.53.21.8.8 0 0 0-.2.56 1.234 1.234 0 0 0 .21.73.653.653 0 0 0 .55.29.638.638 0 0 0 .53-.24 1.208 1.208 0 0 0 .18-.67z"/></g><g id="Group_1696" data-name="Group 1696"><path id="Path_967" data-name="Path 967" class="cls-1" d="M47.93 110.48c-.23.36-.44.7-.64 1.04a9.8 9.8 0 0 0-.53 1.01 5.785 5.785 0 0 0-.35 1.04 4.662 4.662 0 0 0-.13 1.13h-1.04a4.421 4.421 0 0 1 .17-1.21 6.829 6.829 0 0 1 .47-1.19 18.23 18.23 0 0 1 1.13-1.79H44.5v-.82h3.42v.79z"/></g><g id="Group_1697" data-name="Group 1697"><path id="Path_968" data-name="Path 968" class="cls-1" d="M33.81 99.47a1.33 1.33 0 0 1-.47 1.09 2.463 2.463 0 0 1-2.66 0 1.315 1.315 0 0 1-.47-1.09 1.19 1.19 0 0 1 1.02-1.22v-.01a1.136 1.136 0 0 1-.66-.4 1.108 1.108 0 0 1-.25-.72 1.18 1.18 0 0 1 .44-.97 1.89 1.89 0 0 1 1.24-.36 1.979 1.979 0 0 1 1.25.35 1.193 1.193 0 0 1 .44.99 1.108 1.108 0 0 1-.25.72 1.071 1.071 0 0 1-.67.39v.01a1.226 1.226 0 0 1 .76.4 1.167 1.167 0 0 1 .28.82zm-1.04-.08a.7.7 0 0 0-.78-.79.731.731 0 0 0-.56.21.848.848 0 0 0-.19.6.875.875 0 0 0 .19.64.755.755 0 0 0 .59.2.743.743 0 0 0 .57-.2 1 1 0 0 0 .18-.66zm-.11-2.21a.7.7 0 0 0-.16-.52.677.677 0 0 0-.49-.17c-.43 0-.65.23-.65.69q0 .72.66.72a.661.661 0 0 0 .49-.17.881.881 0 0 0 .15-.55z"/></g><g id="Group_1698" data-name="Group 1698"><path id="Path_969" data-name="Path 969" class="cls-1" d="M27.99 77.23a3.332 3.332 0 0 1-.49 2 1.621 1.621 0 0 1-1.39.66 1.69 1.69 0 0 1-1.04-.28 1.545 1.545 0 0 1-.53-.9l.94-.13a.615.615 0 0 0 .64.52.724.724 0 0 0 .65-.4 2.507 2.507 0 0 0 .23-1.19.946.946 0 0 1-.44.42 1.517 1.517 0 0 1-.66.15 1.319 1.319 0 0 1-1.05-.45 1.805 1.805 0 0 1-.39-1.22 1.637 1.637 0 0 1 .46-1.24 1.786 1.786 0 0 1 1.3-.45 1.52 1.52 0 0 1 1.34.63 3.415 3.415 0 0 1 .43 1.88zm-1.06-.7a1.183 1.183 0 0 0-.21-.74.664.664 0 0 0-.54-.28.632.632 0 0 0-.52.24 1.017 1.017 0 0 0-.19.66 1.066 1.066 0 0 0 .19.67.619.619 0 0 0 .53.25.7.7 0 0 0 .53-.22.779.779 0 0 0 .21-.58z"/></g><g id="Group_1699" data-name="Group 1699"><path id="Path_970" data-name="Path 970" class="cls-1" d="M27.81 60.61v-.74h1.24v-3.43l-1.2.75v-.79l1.26-.82h.95v4.28h1.15v.74h-3.4z"/><path id="Path_971" data-name="Path 971" class="cls-1" d="M35.17 58.09a3.51 3.51 0 0 1-.44 1.93 1.467 1.467 0 0 1-1.31.66c-1.15 0-1.72-.86-1.72-2.58a4.642 4.642 0 0 1 .19-1.47 1.473 1.473 0 0 1 1.57-1.11 1.459 1.459 0 0 1 1.31.65 3.689 3.689 0 0 1 .4 1.92zm-1 0a6.111 6.111 0 0 0-.07-1.08 1.139 1.139 0 0 0-.22-.55.549.549 0 0 0-.43-.17.6.6 0 0 0-.46.17 1.087 1.087 0 0 0-.22.55 7.058 7.058 0 0 0-.07 1.08 5.913 5.913 0 0 0 .07 1.07 1.139 1.139 0 0 0 .22.55.572.572 0 0 0 .44.17.545.545 0 0 0 .44-.18 1.276 1.276 0 0 0 .23-.56 6.81 6.81 0 0 0 .07-1.05z"/></g><g id="Group_1700" data-name="Group 1700"><path id="Path_972" data-name="Path 972" class="cls-1" d="M43.07 45.73v-.74h1.24v-3.43l-1.2.75v-.79l1.26-.82h.95v4.28h1.15v.74h-3.4z"/><path id="Path_973" data-name="Path 973" class="cls-1" d="M46.73 45.73v-.74h1.24v-3.43l-1.2.75v-.79l1.26-.82h.95v4.28h1.15v.74h-3.4z"/></g></g></g></g><g id="Group_1728" data-name="Group 1728"><g id="Group_1706" data-name="Group 1706"><g id="Group_1704" data-name="Group 1704"><path id="Path_974" data-name="Path 974" class="cls-1" d="M64 77.62l1.4-25.03 1.4 25.03z"/></g><g id="Group_1705" data-name="Group 1705"><path id="Path_975" data-name="Path 975" class="cls-1" d="M74.94 60.84c-.58 1.01-1.24 1.94-1.9 2.87-.68.91-1.37 1.81-2.1 2.67-1.43 1.75-2.96 3.39-4.55 4.99l-.99 1-.99-1c-.79-.8-1.57-1.6-2.33-2.43s-1.51-1.67-2.22-2.55c-.73-.86-1.42-1.76-2.1-2.67a33.95 33.95 0 0 1-1.9-2.87 33.149 33.149 0 0 1 2.87 1.9c.91.68 1.81 1.37 2.67 2.1.88.71 1.72 1.46 2.55 2.22s1.64 1.54 2.43 2.33H64.4a67.293 67.293 0 0 1 4.99-4.55c.86-.73 1.76-1.42 2.67-2.1.94-.67 1.87-1.33 2.88-1.91z"/></g></g><g id="Group_1709" data-name="Group 1709"><g id="Group_1707" data-name="Group 1707"><path id="Path_976" data-name="Path 976" class="cls-1" d="M64.41 78.61L47.7 59.93l18.69 16.7z"/></g><g id="Group_1708" data-name="Group 1708"><path id="Path_977" data-name="Path 977" class="cls-1" d="M60.28 59.01a33.513 33.513 0 0 1 .68 3.37c.16 1.12.31 2.25.4 3.37.22 2.25.31 4.49.31 6.74v1.4h-1.4c-1.12 0-2.25-.02-3.37-.07s-2.25-.11-3.37-.24a48.39 48.39 0 0 1-3.37-.41 33.572 33.572 0 0 1-3.37-.69c1.12-.31 2.25-.49 3.37-.69 1.12-.16 2.25-.31 3.37-.41 1.12-.12 2.25-.18 3.37-.24s2.25-.07 3.37-.07l-1.4 1.4c.01-2.25.09-4.49.31-6.74.09-1.12.24-2.25.4-3.37.21-1.1.39-2.22.7-3.35z"/></g></g><g id="Group_1712" data-name="Group 1712"><g id="Group_1710" data-name="Group 1710"><path id="Path_978" data-name="Path 978" class="cls-1" d="M65.4 79.02l-25.03-1.4 25.03-1.4z"/></g><g id="Group_1711" data-name="Group 1711"><path id="Path_979" data-name="Path 979" class="cls-1" d="M48.62 68.09c1.01.58 1.94 1.24 2.87 1.9.91.68 1.81 1.37 2.67 2.1 1.75 1.43 3.39 2.96 4.99 4.55l1 .99-1 .99c-.8.79-1.6 1.57-2.43 2.33s-1.67 1.51-2.55 2.22c-.86.73-1.76 1.42-2.67 2.1a33.949 33.949 0 0 1-2.87 1.9 33.149 33.149 0 0 1 1.9-2.87c.68-.91 1.37-1.81 2.1-2.67.71-.88 1.46-1.72 2.22-2.55s1.54-1.64 2.33-2.43v1.98a67.292 67.292 0 0 1-4.55-4.99c-.73-.86-1.42-1.76-2.1-2.67-.67-.94-1.33-1.87-1.91-2.88z"/></g></g><g id="Group_1715" data-name="Group 1715"><g id="Group_1713" data-name="Group 1713"><path id="Path_980" data-name="Path 980" class="cls-1" d="M66.39 78.61L47.7 95.32l16.71-18.69z"/></g><g id="Group_1714" data-name="Group 1714"><path id="Path_981" data-name="Path 981" class="cls-1" d="M46.79 82.75a33.516 33.516 0 0 1 3.37-.68c1.12-.16 2.25-.31 3.37-.4 2.25-.22 4.49-.31 6.74-.31h1.4v1.4c0 1.12-.02 2.25-.07 3.37s-.11 2.25-.24 3.37a48.39 48.39 0 0 1-.41 3.37 33.573 33.573 0 0 1-.69 3.37c-.31-1.12-.49-2.25-.69-3.37a55.24 55.24 0 0 1-.4-3.37c-.12-1.12-.18-2.25-.24-3.37s-.07-2.25-.07-3.37l1.4 1.4c-2.25-.01-4.49-.09-6.74-.31a55.24 55.24 0 0 1-3.37-.4c-1.11-.21-2.23-.39-3.36-.7z"/></g></g><g id="Group_1718" data-name="Group 1718"><g id="Group_1716" data-name="Group 1716"><path id="Path_982" data-name="Path 982" class="cls-1" d="M66.8 77.62l-1.4 25.03L64 77.62z"/></g><g id="Group_1717" data-name="Group 1717"><path id="Path_983" data-name="Path 983" class="cls-1" d="M55.87 94.41c.58-1.01 1.24-1.94 1.9-2.87.68-.91 1.37-1.81 2.1-2.67 1.43-1.75 2.96-3.39 4.55-4.99l.99-1 .99 1c.79.8 1.57 1.6 2.33 2.43s1.51 1.67 2.22 2.55c.73.86 1.42 1.76 2.1 2.67a33.949 33.949 0 0 1 1.9 2.87 33.148 33.148 0 0 1-2.87-1.9c-.91-.68-1.81-1.37-2.67-2.1-.88-.71-1.72-1.46-2.55-2.22s-1.64-1.54-2.43-2.33h1.98a67.294 67.294 0 0 1-4.99 4.55c-.86.73-1.76 1.42-2.67 2.1-.94.67-1.87 1.33-2.88 1.91z"/></g></g><g id="Group_1721" data-name="Group 1721"><g id="Group_1719" data-name="Group 1719"><path id="Path_984" data-name="Path 984" class="cls-1" d="M66.39 76.63L83.1 95.32 64.41 78.61z"/></g><g id="Group_1720" data-name="Group 1720"><path id="Path_985" data-name="Path 985" class="cls-1" d="M70.53 96.23a33.516 33.516 0 0 1-.68-3.37 55.24 55.24 0 0 1-.4-3.37 69.09 69.09 0 0 1-.31-6.74v-1.4h1.4c1.12 0 2.25.02 3.37.07s2.25.11 3.37.24c1.12.09 2.25.24 3.37.41a33.572 33.572 0 0 1 3.37.69c-1.12.31-2.25.49-3.37.69-1.12.16-2.25.31-3.37.41-1.12.12-2.25.18-3.37.24s-2.25.07-3.37.07l1.4-1.4c-.01 2.25-.09 4.49-.31 6.74a55.24 55.24 0 0 1-.4 3.37c-.21 1.11-.39 2.23-.7 3.35z"/></g></g><g id="Group_1724" data-name="Group 1724"><g id="Group_1722" data-name="Group 1722"><path id="Path_986" data-name="Path 986" class="cls-1" d="M65.4 76.22l25.03 1.4-25.03 1.4z"/></g><g id="Group_1723" data-name="Group 1723"><path id="Path_987" data-name="Path 987" class="cls-1" d="M82.19 87.16c-1.01-.58-1.94-1.24-2.87-1.9-.91-.68-1.81-1.37-2.67-2.1-1.75-1.43-3.39-2.96-4.99-4.55l-1-.99 1-.99c.8-.79 1.6-1.57 2.43-2.33s1.67-1.51 2.55-2.22c.86-.73 1.76-1.42 2.67-2.1a33.949 33.949 0 0 1 2.87-1.9 33.148 33.148 0 0 1-1.9 2.87c-.68.91-1.37 1.81-2.1 2.67-.71.88-1.46 1.72-2.22 2.55s-1.54 1.64-2.33 2.43v-1.98c1.58 1.59 3.12 3.24 4.55 4.99.73.86 1.42 1.76 2.1 2.67.67.94 1.33 1.87 1.91 2.88z"/></g></g><g id="Group_1727" data-name="Group 1727"><g id="Group_1725" data-name="Group 1725"><path id="Path_988" data-name="Path 988" class="cls-1" d="M64.41 76.63l18.69-16.7-16.71 18.68z"/></g><g id="Group_1726" data-name="Group 1726"><path id="Path_989" data-name="Path 989" class="cls-1" d="M84.01 72.5a33.516 33.516 0 0 1-3.37.68c-1.12.16-2.25.31-3.37.4-2.25.22-4.49.31-6.74.31h-1.4v-1.4c0-1.12.02-2.25.07-3.37s.11-2.25.24-3.37c.09-1.12.24-2.25.4-3.37a33.572 33.572 0 0 1 .69-3.37c.31 1.12.49 2.25.69 3.37.16 1.12.31 2.25.4 3.37.12 1.12.18 2.25.24 3.37s.07 2.25.07 3.37l-1.4-1.4c2.25.01 4.49.09 6.74.31 1.12.09 2.25.24 3.37.4 1.13.21 2.25.39 3.37.7z"/></g></g></g><g id="Group_1731" data-name="Group 1731"><g id="Group_1729" data-name="Group 1729"><path id="Path_990" data-name="Path 990" class="cls-1" d="M25.47 30.48a15.232 15.232 0 0 1-1.97 3.63 24.928 24.928 0 0 1-2.57 3.03 24.093 24.093 0 0 1-3.02 2.57 15.206 15.206 0 0 1-3.63 1.96 15.206 15.206 0 0 1 1.96-3.63 24.486 24.486 0 0 1 5.6-5.59 15.594 15.594 0 0 1 3.63-1.97z"/></g><g id="Group_1730" data-name="Group 1730"><path id="Path_991" data-name="Path 991" class="cls-1" d="M14.28 30.48a15.232 15.232 0 0 1 3.63 1.97 24.486 24.486 0 0 1 5.6 5.59 15.206 15.206 0 0 1 1.96 3.63 15.206 15.206 0 0 1-3.63-1.96 24.486 24.486 0 0 1-5.59-5.6 14.856 14.856 0 0 1-1.97-3.63z"/></g></g><g id="Group_1734" data-name="Group 1734"><g id="Group_1732" data-name="Group 1732"><path id="Path_992" data-name="Path 992" class="cls-1" d="M113.55 117.29a15.232 15.232 0 0 1-1.97 3.63 24.486 24.486 0 0 1-5.59 5.6 15.206 15.206 0 0 1-3.63 1.96 15.206 15.206 0 0 1 1.96-3.63 24.486 24.486 0 0 1 5.6-5.59 15.232 15.232 0 0 1 3.63-1.97z"/></g><g id="Group_1733" data-name="Group 1733"><path id="Path_993" data-name="Path 993" class="cls-1" d="M102.37 117.29a15.232 15.232 0 0 1 3.63 1.97 24.486 24.486 0 0 1 5.6 5.59 15.206 15.206 0 0 1 1.96 3.63 15.206 15.206 0 0 1-3.63-1.96 24.486 24.486 0 0 1-5.59-5.6 14.887 14.887 0 0 1-1.97-3.63z"/></g></g><g id="Group_1737" data-name="Group 1737"><g id="Group_1735" data-name="Group 1735"><path id="Path_994" data-name="Path 994" class="cls-1" d="M45.47 16.48a15.232 15.232 0 0 1-1.97 3.63 24.928 24.928 0 0 1-2.57 3.03 24.093 24.093 0 0 1-3.02 2.57 15.206 15.206 0 0 1-3.63 1.96 15.206 15.206 0 0 1 1.96-3.63 24.486 24.486 0 0 1 5.6-5.59 15.594 15.594 0 0 1 3.63-1.97z"/></g><g id="Group_1736" data-name="Group 1736"><path id="Path_995" data-name="Path 995" class="cls-1" d="M34.28 16.48a15.232 15.232 0 0 1 3.63 1.97 24.486 24.486 0 0 1 5.6 5.59 15.206 15.206 0 0 1 1.96 3.63 15.206 15.206 0 0 1-3.63-1.96 24.093 24.093 0 0 1-3.02-2.57 24.19 24.19 0 0 1-2.57-3.03 14.856 14.856 0 0 1-1.97-3.63z"/></g></g></svg>
