<svg xmlns="http://www.w3.org/2000/svg" viewBox="0 0 150 150"><defs><style>.cls-1{fill:#efefef}</style></defs><g id="Group_1774" data-name="Group 1774" transform="translate(0 -210.05)"><g id="Group_1773" data-name="Group 1773"><path id="Path_1049" data-name="Path 1049" class="cls-1" d="M46.27 278.31h93.5l-14.87 14.88H29.39z"/><path id="Path_1050" data-name="Path 1050" class="cls-1" d="M27.11 309.26h93.5l-14.88 14.87h-95.5z"/><path id="Path_1051" data-name="Path 1051" d="M27.11 334.07h93.5l-14.88 14.88h-95.5z" fill="#2734ad"/><g id="Group_1770" data-name="Group 1770"><g id="Group_1769" data-name="Group 1769"><path id="Path_1052" data-name="Path 1052" class="cls-1" d="M113.94 235.09c.59-2.34 3.67-3.81 3.88-4.13a17.479 17.479 0 0 1 3.28-1.17s4.98 4.24 4.45 8.16a78.211 78.211 0 0 0-.57 8.36s-11.04 1.18-11.04.86a25.459 25.459 0 0 1 0-12.08z"/><path id="Path_1053" data-name="Path 1053" class="cls-1" d="M121.18 230.12l-3.18.71v-1.13s-1.88.78-1.89-.07-1.07-3.3.06-4.4a2.765 2.765 0 0 1 3.88.17 4.517 4.517 0 0 1 .49 2.68z"/><path id="Path_1054" data-name="Path 1054" class="cls-1" d="M115.95 225.24a3.188 3.188 0 0 0 2.46 0l.35.16s.32 1.43.74 1.54a1.223 1.223 0 0 0 1.32-1.54 2.274 2.274 0 0 0-3.5-1.28l-1.37 1.12"/><path id="Path_1055" data-name="Path 1055" class="cls-1" d="M123.27 231.66s-1.95.86-2.08 4.4 3.11 8.43 3.11 8.43l-.87 1.27-6.56 4.09-.47 1.33s9.11-2.92 10-3.66-.17-11.48-.62-12.73a11.854 11.854 0 0 0-2.51-3.13z"/></g><path id="Path_1056" data-name="Path 1056" class="cls-1" d="M120.35 281.37l-.03-17.62s0-7.74.62-9.72.47-7.38.47-7.38l-6.82.26v18.72l3.75 15.74h2.01z"/><path id="Path_1057" data-name="Path 1057" class="cls-1" d="M129.16 280.52l-3.66-17.24s-1.6-7.57-1.4-9.64-1.07-7.32-1.07-7.32l-6.62 1.66 3.86 18.32 6.92 14.63z"/></g><g id="Group_1772" data-name="Group 1772"><g id="Group_1771" data-name="Group 1771"><path id="Path_1058" data-name="Path 1058" class="cls-1" d="M105.26 240.45c-.44-2.13-2.75-3.46-2.91-3.75a11.816 11.816 0 0 0-2.47-1.06s-3.74 3.85-3.34 7.41.43 7.59.43 7.59 8.29 1.07 8.29.78a27.8 27.8 0 0 0 0-10.97z"/><path id="Path_1059" data-name="Path 1059" class="cls-1" d="M99.76 236.31l2.83.64v-1.03s1.68.71 1.69-.06.95-3-.05-4a2.441 2.441 0 0 0-3.46.15 4.15 4.15 0 0 0-.44 2.44z"/><path id="Path_1060" data-name="Path 1060" class="cls-1" d="M104.41 231.88a2.774 2.774 0 0 1-2.19 0l-.31.14s-.28 1.3-.66 1.4a1.106 1.106 0 0 1-1.18-1.4 2.008 2.008 0 0 1 3.11-1.16l1.23 1.02"/><path id="Path_1061" data-name="Path 1061" class="cls-1" d="M98.58 237.33s1.74.78 1.85 3.99-2.77 7.66-2.77 7.66l.78 1.16 5.84 3.71.42 1.21s-8.11-2.65-8.9-3.32.15-10.43.55-11.56a10.342 10.342 0 0 1 2.23-2.85z"/></g><path id="Path_1062" data-name="Path 1062" class="cls-1" d="M100.99 279.37l.02-14.5s0-6.37-.44-8a33.721 33.721 0 0 1-.33-6.07l4.85.22v15.41l-2.67 12.96h-1.43z"/><path id="Path_1063" data-name="Path 1063" class="cls-1" d="M100.28 279.47l.05-14.5s.03-6.37.48-8a33.562 33.562 0 0 0 .36-6.07l-4.85.18-.08 15.41 2.6 12.97z"/><path id="Path_1064" data-name="Path 1064" class="cls-1" d="M102.9 230.09s-4.02-.2-4.2 1.18-2.44 5.47-.21 6.49.64-2.12 2.04-3.45 2.86-2.16 2.37-4.22z"/></g><path id="Path_1065" data-name="Path 1065" d="M81.99 246.49c-1.31-5.19-8.13-8.46-8.6-9.16a1.357 1.357 0 0 0-.47-.32l.08.02v-2.51s4.17 1.72 4.2-.16c.03-1.84 2.26-7.07.01-9.59.2-.07.32-.12.32-.12l-3.05-2.48c-3.05-2.48-7.16.13-7.75 2.83a2.653 2.653 0 0 0 .72 2.65 13.017 13.017 0 0 0-.09 3.27l-1.19 3.85-.06-.02s-.43.37-1.1 1.01c-1.73.72-5.7 2.51-7.38 4.36-2.17 2.4-5.65 18.5-6.61 21.22s6.41 24.19 6.41 24.19l.08-1v19.94l7.57 31.78h-.33l-4.48 2.77h8.96v-2.77h-.07l-.06-35.58s0-10.12.65-16.16c.65 6.04.65 16.16.65 16.16l-.06 35.58h-.19v2.77h8.96l-4.48-2.77h-.21l7.57-31.78v-31.2a56.266 56.266 0 0 0 0-26.78zm-25.98 20.82l1.22-3.41c.24 4.31.27 7.46.27 7.46v3.07z" fill="#fff" stroke="#2734ad" stroke-miterlimit="10" stroke-width=".419" stroke-dasharray="1.677 1.677"/></g><path id="Rectangle_1907" data-name="Rectangle 1907" transform="translate(0 210.05)" fill="none" d="M0 0h150v150H0z"/></g></svg>
